<svg xmlns="http://www.w3.org/2000/svg" width="200" height="200" viewBox="0 0 200 200">
  <path fill="#3776AB" d="M36.5,26.3c0,0,29.4-18.5,60.8,21.5C121.8,99.3,152.7,8.6,174,26.3c0,0-17.7-8.2-45.3,28.2C113.6,85.5,132,43.5,151.5,58c0,0-11.1-14.7-30.7-13.4c0,0,19.4-2.4,29.8,17.9c0,0-10.4,18.3-31.6,6.7c0,0,15.7,2.9,22.2,21.5c0,0-0.9,21-17,18.2C111.9,130.8,97,84.6,78.3,104c0,0,6.2,18.3-8.7,23.8c0,0,0.9-19.8-14.4-25.3c0,0-17.8-3.4-9.6,24.8c0,0,3.2,13.3-6.5,15.7c0,0-4.2-5.2-2.9-10.3c0,0-2.1-0.6-2.7,3.7c0,0,1.2,4.4,5.3,4.2c0,0,2.6,5.5-3.7,6.6c0,0-7.7-1.5-6.2-8.4c0,0-0.2-5.9,4.9-3.7c0,0,7.5,2.9,3.5,11.4c0,0-2.6,4.2-7.9,2.4c0,0-1.9,1.8-1.2,4.9c0,0,2.5,2.6,5.8,0.5c0,0,2.9-1.1,1.9-4.5c0,0-1.2-2.9-6.5-0.4c0,0-4.6,2.3-6.4-1.4c0,0-0.3-3.5,3.1-4c0,0,2.5-1.4,2.4-3.2c0,0-0.2-2.4-3.8-1.2c0,0-3.3,0.6-2.3-2.6c0,0,0.7-2.2,2.6-2.4c0,0,3.8-0.5,2.7-3.2C23.4,87.5,9.2,53.1,36.5,26.3z"/>
</svg>
